<?xml version="1.0" encoding="utf-8"?>
<!-- Generator: Adobe Illustrator 19.0.0, SVG Export Plug-In . SVG Version: 6.00 Build 0)  -->
<svg version="1.1" xmlns="http://www.w3.org/2000/svg" xmlns:xlink="http://www.w3.org/1999/xlink" x="0px" y="0px"
	 viewBox="0 0 237 153" style="enable-background:new 0 0 237 153;" xml:space="preserve">
<style type="text/css">
	.st0{fill:#FFFFFF;}
	.st1{fill:#FF4C12;}
	.st2{fill:url(#SVGID_1_);}
	.st3{fill:#003853;}
	.st4{fill:url(#SVGID_2_);}
</style>
<g id="Background">
	<g>
		<rect x="-22.1" y="-206.6" class="st0" width="500.6" height="500.6"/>
	</g>
</g>
<g id="Objects">
	<g>
		<polygon class="st1" points="29.3,49.2 25.9,57.5 25.9,103.8 202.1,94.4 205.7,87 		"/>
		<g>
			
				<linearGradient id="SVGID_1_" gradientUnits="userSpaceOnUse" x1="29.7994" y1="-16067.3984" x2="205.8199" y2="-16067.3984" gradientTransform="matrix(1 0 0 -1 0 -15995.2002)">
				<stop  offset="0" style="stop-color:#FFC417"/>
				<stop  offset="4.552996e-002" style="stop-color:#FFBA17"/>
				<stop  offset="0.2489" style="stop-color:#FF9315"/>
				<stop  offset="0.4496" style="stop-color:#FF7414"/>
				<stop  offset="0.6445" style="stop-color:#FF5E13"/>
				<stop  offset="0.8311" style="stop-color:#FF5112"/>
				<stop  offset="1" style="stop-color:#FF4C12"/>
			</linearGradient>
			<polygon class="st2" points="205.8,87 31.1,95.3 29.8,49.1 204.7,49.5 			"/>
			<g>
				<path class="st0" d="M41.5,73.7c-0.2-7.1,5.2-12.4,12.8-12.6c7.6-0.2,13.3,4.7,13.5,11.8C68,79.9,62.6,85.2,55,85.5
					C47.4,85.7,41.7,80.7,41.5,73.7z M59.9,73.1c-0.1-3.6-2.5-5.8-5.4-5.7c-2.9,0.1-5.2,2.4-5.1,6c0.1,3.6,2.5,5.8,5.4,5.7
					C57.7,79,60,76.7,59.9,73.1z"/>
				<path class="st0" d="M93.3,60.4L94,83.7l-6.5,0.2l-9.2-10.3l0.3,10.6L71,84.4l-0.7-23.3l6.5-0.2L86,71.2l-0.3-10.6L93.3,60.4z"
					/>
				<path class="st0" d="M97.1,60.3L105,60l0.5,17.2l10.5-0.3l0.2,6.1l-18.4,0.6L97.1,60.3z"/>
				<path class="st0" d="M117.7,59.6l7.9-0.2l0.7,23.3l-7.9,0.2L117.7,59.6z"/>
				<path class="st0" d="M152.4,58.6l0.7,23.3l-6.5,0.2l-9.2-10.3l0.3,10.6l-7.7,0.2l-0.7-23.3l6.5-0.2l9.2,10.3l-0.3-10.6
					L152.4,58.6z"/>
				<path class="st0" d="M176.1,75.3l0.2,5.9l-19.4,0.6l-0.7-23.3l19-0.6l0.2,5.9l-11.2,0.3l0.1,2.7l9.9-0.3l0.2,5.7l-9.9,0.3
					l0.1,3.1L176.1,75.3z"/>
			</g>
		</g>
		<g>
			<path class="st3" d="M61.9,34.8c0-7.4,5.7-12.7,13.3-12.7c4.2,0,7.8,1.5,10.1,4.4l-3.6,3.4c-1.6-1.9-3.7-2.9-6.2-2.9
				c-4.6,0-7.9,3.2-7.9,7.9c0,4.6,3.3,7.9,7.9,7.9c2.5,0,4.5-1,6.2-2.9l3.6,3.4c-2.3,2.8-5.9,4.4-10.1,4.4
				C67.6,47.5,61.9,42.2,61.9,34.8z"/>
			<path class="st3" d="M86.7,37.6c0-5.7,4.4-9.7,10.4-9.7s10.4,4,10.4,9.7c0,5.7-4.4,9.7-10.4,9.7S86.7,43.3,86.7,37.6z
				 M101.9,37.6c0-3.3-2.1-5.2-4.8-5.2s-4.8,2-4.8,5.2c0,3.3,2.1,5.2,4.8,5.2S101.9,40.9,101.9,37.6z"/>
			<path class="st3" d="M143,36.3v10.8h-5.5v-10c0-3.1-1.4-4.5-3.6-4.5c-2.5,0-4.2,1.6-4.2,4.9v9.5h-5.5v-10c0-3.1-1.3-4.5-3.6-4.5
				c-2.4,0-4.1,1.6-4.1,4.9v9.5h-5.5V28.2h5.2v2.2c1.4-1.6,3.5-2.5,5.9-2.5c2.6,0,4.9,1,6.2,3.1c1.5-1.9,4-3.1,6.8-3.1
				C139.8,27.9,143,30.5,143,36.3z"/>
			<path class="st3" d="M168.5,37.6c0,5.9-4.1,9.7-9.4,9.7c-2.4,0-4.3-0.7-5.7-2.3v8.8h-5.5V28.2h5.2v2.2c1.4-1.6,3.4-2.5,5.9-2.5
				C164.4,27.9,168.5,31.7,168.5,37.6z M163,37.6c0-3.3-2.1-5.2-4.8-5.2c-2.7,0-4.8,2-4.8,5.2c0,3.3,2.1,5.2,4.8,5.2
				C160.9,42.9,163,40.9,163,37.6z"/>
			<path class="st3" d="M183.9,27.9V33c-0.5,0-0.8-0.1-1.2-0.1c-3,0-5,1.6-5,5.3v8.9h-5.5V28.2h5.2v2.5
				C178.7,28.9,181,27.9,183.9,27.9z"/>
			<path class="st3" d="M203.7,36.3v10.8h-5.1v-2.4c-1,1.7-3,2.6-5.8,2.6c-4.4,0-7.1-2.5-7.1-5.7c0-3.3,2.4-5.7,8.1-5.7h4.4
				c0-2.4-1.4-3.7-4.4-3.7c-2,0-4.1,0.7-5.4,1.8l-2-3.8c2.1-1.5,5.1-2.3,8.1-2.3C200.4,27.9,203.7,30.6,203.7,36.3z M198.3,41.1
				v-1.9h-3.8c-2.6,0-3.4,0.9-3.4,2.2c0,1.4,1.2,2.3,3.1,2.3C196,43.7,197.6,42.8,198.3,41.1z"/>
		</g>
	</g>
	
		<linearGradient id="SVGID_2_" gradientUnits="userSpaceOnUse" x1="17.6407" y1="-16050.5928" x2="68.8907" y2="-16050.5928" gradientTransform="matrix(1 0 0 -1 0 -15995.2002)">
		<stop  offset="0" style="stop-color:#003853"/>
		<stop  offset="0.5888" style="stop-color:#012B3D"/>
		<stop  offset="1" style="stop-color:#012533"/>
	</linearGradient>
	<path class="st4" d="M60.9,63.4H25.7c-4.4,0-8-3.6-8-8v0c0-4.4,3.6-8,8-8h35.2c4.4,0,8,3.6,8,8v0C68.9,59.8,65.3,63.4,60.9,63.4z"
		/>
	<g>
		<g>
			<g>
				<path class="st0" d="M197.1,97.7c0,0-9.2,0.1-10.2,0.1V86.6c0-2.7-2.3-4.9-5-4.9c-2.7,0-5,2.2-5,4.9v21.6l-2.2-4.2
					c-1.7-2-4.1-2.3-6.2-0.6c-2,1.7-2,4.8-0.3,6.9c0,0,12.6,16.5,12.7,16.6c2.8,2.8,6.3,4.6,12.1,4.6h5c7.4,0,11.8-5.4,11.8-12.8
					v-8.4C209.9,102.7,204.5,97.7,197.1,97.7z"/>
				<path class="st3" d="M198.1,132.4h-5c-5.9,0-9.8-1.4-13.1-4.8l0,0c-0.4-0.5-2.2-2.7-12.8-16.5c-1-1.2-1.6-2.9-1.6-4.5
					c0.1-1.7,0.8-3.3,2.1-4.4c1.2-1,2.5-1.5,3.9-1.5c1.6,0,3.1,0.7,4.3,2V86.6c0-3.4,3-6.4,6.5-6.4c3.5,0,6.5,2.9,6.5,6.4v9.7
					c2.9,0,8.7-0.1,8.7-0.1c8.4,0,14.3,5.7,14.3,13.9v8.4C211.9,126.8,206.4,132.4,198.1,132.4z M182.1,125.5c2.8,2.7,6,3.9,11,3.9
					h5c6.5,0,10.8-4.3,10.8-10.8v-8.4c0-6.4-4.7-10.8-11.3-10.8c0,0-9.2,0.1-10.2,0.1h-1.5V86.6c0-1.8-1.6-3.4-3.5-3.4
					s-3.5,1.5-3.5,3.4v27.2l-5.2-9c-1.2-1.3-2.7-1.4-4.1-0.3c-0.6,0.5-1,1.3-1,2.2c0,0.9,0.3,1.8,0.9,2.5
					C174.3,115.5,181.5,124.8,182.1,125.5z"/>
			</g>
			<g>
				<line class="st3" x1="186.9" y1="97.4" x2="186.9" y2="107.4"/>
				<rect x="185.9" y="97.4" class="st3" width="3" height="10"/>
			</g>
			<g>
				<line class="st3" x1="194.9" y1="97.4" x2="194.9" y2="107.4"/>
				<rect x="193.9" y="97.4" class="st3" width="3" height="10"/>
			</g>
			<g>
				<line class="st3" x1="200.9" y1="97.4" x2="200.9" y2="107.4"/>
				<rect x="199.9" y="97.4" class="st3" width="3" height="10"/>
			</g>
		</g>
		<g>
			<line class="st3" x1="180.9" y1="75.4" x2="180.9" y2="55.4"/>
			<path class="st3" d="M181.4,77c-0.7,0-1.5-0.6-1.5-1.3V55.2c0-0.7,0.8-1.3,1.5-1.3c0.7,0,1.5,0.6,1.5,1.3v20.5
				C182.9,76.4,182.1,77,181.4,77z"/>
		</g>
		<g>
			<line class="st3" x1="186.3" y1="76.2" x2="200.9" y2="61.7"/>
			<path class="st3" d="M186.3,77.5c-0.3,0-0.7-0.1-0.9-0.4c-0.5-0.5-0.5-1.3,0-1.8L200,60.8c0.5-0.5,1.3-0.5,1.8,0
				c0.5,0.5,0.5,1.3,0,1.8l-14.5,14.5C187,77.4,186.7,77.5,186.3,77.5z"/>
		</g>
		<g>
			<path class="st0" d="M27.7,52.8H25v-1.6h7.2v1.6h-2.6v6.7h-1.9V52.8z"/>
			<path class="st0" d="M32.9,55.4c0-2.4,1.9-4.3,4.5-4.3c2.6,0,4.5,1.8,4.5,4.3c0,2.5-1.9,4.3-4.5,4.3
				C34.8,59.6,32.9,57.8,32.9,55.4z M40,55.4c0-1.6-1.1-2.6-2.6-2.6c-1.5,0-2.6,1.1-2.6,2.6c0,1.6,1.1,2.6,2.6,2.6
				C38.9,58,40,56.9,40,55.4z"/>
			<path class="st0" d="M43.6,51.2h3.7c2.7,0,4.5,1.6,4.5,4.1s-1.8,4.1-4.5,4.1h-3.7V51.2z M47.3,57.9c1.6,0,2.7-1,2.7-2.6
				c0-1.6-1.1-2.6-2.7-2.6h-1.7v5.1H47.3z"/>
			<path class="st0" d="M53.1,55.4c0-2.4,1.9-4.3,4.5-4.3c2.6,0,4.5,1.8,4.5,4.3c0,2.5-1.9,4.3-4.5,4.3C55,59.6,53.1,57.8,53.1,55.4
				z M60.2,55.4c0-1.6-1.1-2.6-2.6-2.6c-1.5,0-2.6,1.1-2.6,2.6c0,1.6,1.1,2.6,2.6,2.6C59.1,58,60.2,56.9,60.2,55.4z"/>
		</g>
	</g>
	<g>
		<path class="st1" d="M16.4,21.5c0.1,0.5,0.5,0.9,1,0.8l0.6-0.1l4-0.5l2.8,6.4l10.6-1.9l0.9,6l-7.9,2.6L27,30.7
			c-0.2-0.5-0.7-0.7-1.2-0.6c-0.1,0-0.2,0.1-0.3,0.2c-0.3,0.2-0.4,0.6-0.2,1l4.1,12.2l3.4-0.8v3.6l24-2.7c0.5-0.1,0.9-0.5,0.8-1
			c-0.1-0.5-0.5-0.9-1-0.8l-22,2.4v-2l22.1-5.4l-1.7-16l-29,5.3l-2.8-6.3l-6,0.8C16.7,20.5,16.3,21,16.4,21.5z M53.7,26.5l-7.9,2.6
			l-1.4-4.6l8.9-1.6L53.7,26.5z M54.3,32.2l-7,1.8L46,29.7l7.7-2.5L54.3,32.2z M48.3,37l-0.7-2.4l6.9-1.8l0.3,2.6L48.3,37z
			 M37.7,37.1l9.2-2.4l0.7,2.4l-9.6,2.3L37.7,37.1z M37.6,36.5L37,32.6l8.4-2.8l1.3,4.3L37.6,36.5z M29.9,39.1l7.3-1.9l0.4,2.4
			l-6.9,1.7L29.9,39.1z M36.5,32.8l0.6,3.8l-7.4,1.9l-1.1-3.1L36.5,32.8z M36,26.1l7.8-1.4l1.4,4.6L37,32L36,26.1z"/>
		<ellipse transform="matrix(0.16 -0.9871 0.9871 0.16 -0.1414 93.2808)" class="st1" cx="54.7" cy="46.7" rx="2.1" ry="1.4"/>
		<ellipse transform="matrix(0.16 -0.9871 0.9871 0.16 -17.9549 76.5336)" class="st1" cx="36" cy="48.8" rx="2.1" ry="1.4"/>
	</g>
</g>
<g id="Designed_by_Freepik">
</g>
</svg>
